<svg width="50" height="50" viewBox="0 0 50 50" fill="none" xmlns="http://www.w3.org/2000/svg">
<path d="M43.4793 32.2947C44.4595 29.9043 45 27.2876 45 24.5454C45 13.2545 35.8364 4.09082 24.5455 4.09082C13.2546 4.09082 4.09094 13.2545 4.09094 24.5454C4.09094 35.8363 13.2546 44.9999 24.5455 44.9999C27.1459 44.9999 29.6335 44.5139 31.9222 43.6277" stroke="#D8DBE2" stroke-width="3.5" stroke-linecap="round" stroke-linejoin="round"/>
<path d="M17.0129 31.3058L23.3539 27.5217C24.4584 26.8672 25.3584 25.2922 25.3584 24.0036V15.6172" stroke="#D8DBE2" stroke-width="3.5" stroke-linecap="round" stroke-linejoin="round"/>
<path d="M38.3982 46.9176C42.9169 46.9176 46.5801 43.2545 46.5801 38.7358C46.5801 34.2171 42.9169 30.554 38.3982 30.554C33.8796 30.554 30.2164 34.2171 30.2164 38.7358C30.2164 43.2545 33.8796 46.9176 38.3982 46.9176Z" stroke="#D8DBE2" stroke-width="3.5" stroke-miterlimit="10" stroke-linecap="round" stroke-linejoin="round"/>
<path d="M41.4459 38.8379H35.3505" stroke="#D8DBE2" stroke-width="1.5" stroke-miterlimit="10" stroke-linecap="round" stroke-linejoin="round"/>
<path d="M38.3982 35.8516V41.9675" stroke="#D8DBE2" stroke-width="1.5" stroke-miterlimit="10" stroke-linecap="round" stroke-linejoin="round"/>
</svg>
