<svg width="42" height="40" viewBox="0 0 42 40" fill="none" xmlns="http://www.w3.org/2000/svg">
<path d="M21.0696 27.1069V30.5569" stroke="#D8DBE2" stroke-width="3.5" stroke-linecap="round" stroke-linejoin="round"/>
<path d="M12.399 36.1429H29.7403V34.5001C29.7403 32.6929 28.1796 31.2144 26.2721 31.2144H15.8673C13.9598 31.2144 12.399 32.6929 12.399 34.5001V36.1429V36.1429Z" stroke="#D8DBE2" stroke-width="3.5" stroke-miterlimit="10"/>
<path d="M10.6649 36.1431H31.4744" stroke="#D8DBE2" stroke-width="3.5" stroke-linecap="round" stroke-linejoin="round"/>
<path d="M20.8095 26.2856C14.0985 26.2856 8.67065 21.1435 8.67065 14.7856V9.85707C8.67065 6.22636 11.7747 3.28564 15.6072 3.28564H26.0119C29.8443 3.28564 32.9484 6.22636 32.9484 9.85707V14.7856C32.9484 21.1435 27.5206 26.2856 20.8095 26.2856Z" stroke="#D8DBE2" stroke-width="3.5" stroke-linecap="round" stroke-linejoin="round"/>
<path d="M9.48565 19.1393C8.18506 18.7451 7.04053 18.0222 6.13879 17.1679C4.57807 15.5251 3.5376 13.5536 3.5376 11.2536C3.5376 8.95363 5.44514 7.14648 7.87292 7.14648H9.0001C8.65327 7.9022 8.47986 8.74006 8.47986 9.61077V14.5393C8.47986 16.1822 8.84403 17.7265 9.48565 19.1393Z" stroke="#D8DBE2" stroke-width="3.5" stroke-linecap="round" stroke-linejoin="round"/>
<path d="M32.1334 19.1393C33.434 18.7451 34.5785 18.0222 35.4803 17.1679C37.041 15.5251 38.0815 13.5536 38.0815 11.2536C38.0815 8.95363 36.1739 7.14648 33.7462 7.14648H32.619C32.9658 7.9022 33.1392 8.74006 33.1392 9.61077V14.5393C33.1392 16.1822 32.775 17.7265 32.1334 19.1393Z" stroke="#D8DBE2" stroke-width="3.5" stroke-linecap="round" stroke-linejoin="round"/>
</svg>
