<svg width="16" height="26" viewBox="0 0 16 26" fill="none" xmlns="http://www.w3.org/2000/svg">
<path d="M3.37117 11.3137C3.25332 10.0174 3.01761 7.2832 3.01761 6.71752C3.01761 6.15183 3.48902 5.0676 3.72472 4.5962L7.61381 0.707111L11.5029 4.5962V6.01041V10.9602M3.37117 11.3137L0.54274 14.1421L1.6034 19.4454L4.78538 16.2635M3.37117 11.3137L4.78538 16.2635M11.5029 10.9602L14.6849 14.1421L12.9171 19.4454L9.73513 16.2635M11.5029 10.9602L9.73513 16.2635M9.73513 16.2635L9.02802 15.5564H5.49249L4.78538 16.2635M9.73513 19.0919L8.32091 17.6777C7.61381 17.442 5.98746 17.3241 5.13893 18.7383C4.29041 20.1525 6.19959 23.0988 7.26025 24.3952C8.20306 23.9238 10.018 22.2032 9.73513 19.0919ZM8.32091 7.77818C7.37811 8.24958 5.70462 8.556 6.55315 6.01041C7.61381 2.82843 9.38157 6.01041 8.32091 7.77818Z" stroke="#D8DBE2"/>
</svg>
