<svg width="46" height="44" viewBox="0 0 46 44" fill="none" xmlns="http://www.w3.org/2000/svg">
<path d="M22.742 27.8633C26.22 27.8633 29.0396 25.0438 29.0396 21.5657C29.0396 18.0876 26.22 15.2681 22.742 15.2681C19.2639 15.2681 16.4443 18.0876 16.4443 21.5657C16.4443 25.0438 19.2639 27.8633 22.742 27.8633Z" stroke="#D8DBE2" stroke-width="3.5" stroke-miterlimit="10" stroke-linecap="round" stroke-linejoin="round"/>
<path d="M1.75 23.413V19.7184C1.75 17.5352 3.53433 15.7299 5.73849 15.7299C9.53806 15.7299 11.0915 13.0429 9.18119 9.74714C8.0896 7.85785 8.74036 5.40178 10.6506 4.31019L14.2823 2.23198C15.9406 1.24535 18.0818 1.83313 19.0685 3.4915L19.2994 3.89035C21.1887 7.1861 24.2955 7.1861 26.2058 3.89035L26.4367 3.4915C27.4233 1.83313 29.5645 1.24535 31.2229 2.23198L34.8545 4.31019C36.7648 5.40178 37.4155 7.85785 36.3239 9.74714C34.4137 13.0429 35.9671 15.7299 39.7666 15.7299C41.9498 15.7299 43.7551 17.5142 43.7551 19.7184V23.413C43.7551 25.5961 41.9708 27.4015 39.7666 27.4015C35.9671 27.4015 34.4137 30.0884 36.3239 33.3842C37.4155 35.2945 36.7648 37.7296 34.8545 38.8211L31.2229 40.8994C29.5645 41.886 27.4233 41.2982 26.4367 39.6398L26.2058 39.241C24.3165 35.9452 21.2096 35.9452 19.2994 39.241L19.0685 39.6398C18.0818 41.2982 15.9406 41.886 14.2823 40.8994L10.6506 38.8211C8.74036 37.7296 8.0896 35.2735 9.18119 33.3842C11.0915 30.0884 9.53806 27.4015 5.73849 27.4015C3.53433 27.4015 1.75 25.5961 1.75 23.413Z" stroke="#D8DBE2" stroke-width="3.5" stroke-miterlimit="10" stroke-linecap="round" stroke-linejoin="round"/>
</svg>
