<svg width="196" height="196" viewBox="0 0 196 196" fill="none" xmlns="http://www.w3.org/2000/svg">
<path d="M122.5 68.3551V60.5151C122.5 36.1784 105.595 26.8684 85.015 39.7717L61.1683 54.7167C58.555 56.2684 55.5333 57.1667 52.5116 57.1667H40.8333C24.5 57.1667 16.3333 65.3334 16.3333 81.6667V114.333C16.3333 130.667 24.5 138.833 40.8333 138.833H57.1666" stroke="#FF2D55" stroke-width="8.5" stroke-linecap="round" stroke-linejoin="round"/>
<path d="M85.015 156.228C105.595 169.132 122.5 159.74 122.5 135.485V105.758" stroke="#FF2D55" stroke-width="8.5" stroke-linecap="round" stroke-linejoin="round"/>
<path d="M153.615 76.9302C160.965 94.4885 158.76 114.987 147 130.667" stroke="#FF2D55" stroke-width="8.5" stroke-linecap="round" stroke-linejoin="round"/>
<path d="M172.725 63.7002C184.73 92.2019 181.137 125.522 161.945 151.084" stroke="#FF2D55" stroke-width="8.5" stroke-linecap="round" stroke-linejoin="round"/>
<path d="M179.667 16.3335L16.3333 179.667" stroke="#FF2D55" stroke-width="8.5" stroke-linecap="round" stroke-linejoin="round"/>
</svg>
